<?xml version="1.0" encoding="UTF-8"?>
<svg width="138" height="42" viewBox="0 0 138 42" fill="none" xmlns="http://www.w3.org/2000/svg">
  <svg x="0" y="4" width="26" height="34" viewBox="0 0 131 167">
    <g transform="matrix(1,0,0,1,-1391.854546,-512.273275)">
      <g transform="matrix(4.166667,0,0,4.166667,1325.746875,477.9375)">
        <g transform="matrix(1,0,0,1,26.7675,18.6629)">
          <path d="M0,18.722C0.968,19.69 2.164,20.298 3.415,20.554C3.426,20.556 3.433,20.556 3.433,20.567L3.433,29.567C-0.126,29.274 -3.607,27.764 -6.328,25.042C-11.573,19.798 -12.308,11.722 -8.527,5.678C-7.91,4.689 -7.183,3.764 -6.32,2.902L6.54,-9.958C7.426,-10.845 8.943,-10.395 9.203,-9.169L10.813,-1.584L9.999,-0.769L0,9.23C-0.91,10.139 -1.503,11.255 -1.78,12.433C-2.302,14.617 -1.701,17.021 0,18.722" fill="#00FFDA"/>
        </g>
      </g>
      <g transform="matrix(4.166667,0,0,4.166667,1325.746875,477.9375)">
        <g transform="matrix(1,0,0,1,42.5878,23.4792)">
          <path d="M0,20.226C-2.721,22.947 -6.202,24.458 -9.761,24.751L-9.761,15.741C-8.503,15.488 -7.301,14.879 -6.328,13.906C-3.71,11.288 -3.71,7.032 -6.328,4.413C-7.483,3.259 -8.962,2.61 -10.481,2.476L-3.473,-4.525C-2.23,-3.837 -1.06,-2.967 -0.008,-1.915C6.099,4.192 6.099,14.127 0,20.226" fill="#00FFDA"/>
        </g>
      </g>
    </g>
  </svg>
  <text x="38" y="29" fill="#0B0F17" font-family="Inter, ui-sans-serif, system-ui, -apple-system, BlinkMacSystemFont, Segoe UI, sans-serif" font-size="25" font-weight="800" letter-spacing="0">6MM</text>
</svg>
